PathFileType	4	(X/Y/Z)	0_coords_data.trc
DataRate	CameraRate	NumFrames	NumMarkers	Units	OrigDataRate	OrigDataStartFrame	OrigNumFrames
30.0	30.0	9	21	m	30.0	11	53
Frame#	Time	THUMB_TIP	THUMB_IP	THUMB_MCP	THUMB_CMC	INDEX_TIP	INDEX_DIP	INDEX_PIP	INDEX_MCP	MIDDLE_TIP	MIDDLE_DIP	MIDDLE_PIP	MIDDLE_MCP	RING_TIP	RING_DIP	RING_PIP	RING_MCP	PINKY_TIP	PINKY_DIP	PINKY_PIP	PINKY_MCP	WRIST
X1	Y1	Z1	X2	Y2	Z2	X3	Y3	Z3	X4	Y4	Z4	X5	Y5	Z5	X6	Y6	Z6	X7	Y7	Z7	X8	Y8	Z8	X9	Y9	Z9	X10	Y10	Z10	X11	Y11	Z11	X12	Y12	Z12	X13	Y13	Z13	X14	Y14	Z14	X15	Y15	Z15	X16	Y16	Z16	X17	Y17	Z17	X18	Y18	Z18	X19	Y19	Z19	X20	Y20	Z20	X21	Y21	Z21
10	0.3333333333333333	0.03548830032348633	-0.024130899429321288	0.959052978515625	0.019201400756835938	-0.021169200897216797	0.9800159912109375	0.008158309936523438	-0.029662099838256836	1.013280029296875	-0.005259280204772949	-0.004912129878997803	1.03397998046875	-0.007237090110778809	-0.058286201477050784	0.9004940185546875	-0.01220300006866455	-0.05417020034790039	0.9240130004882813	-0.01914150047302246	-0.04974860000610352	0.9478419799804687	-0.03798740005493164	-0.04004130172729492	0.9847150268554687	0.002152689933776855	-0.025406600952148438	0.9793829956054687	0.009206089973449707	-0.028507999420166016	0.9609769897460938	-0.011551799774169922	-0.02949810028076172	0.9401849975585937	-0.043041099548339845	-0.016924999237060548	0.974052978515625	0.01123289966583252	-0.009343859672546386	0.97585498046875	0.016961599349975588	-0.01109879970550537	0.9575120239257813	-0.001797330021858215	-0.007670700073242187	0.9369990234375	-0.030695499420166014	0.005639959812164306	0.9703660278320313	-0.012105099678039551	0.025570499420166017	0.897781005859375	-0.010600600242614746	0.02437220001220703	0.9200490112304688	-0.011148300170898438	0.02274489974975586	0.94052001953125	-0.009624030113220215	0.02124799919128418	0.9715540161132813	-0.03617520141601562	0.014554699897766114	1.0553599853515625
11	0.36666666666666664	0.035272300720214846	-0.023984100341796873	0.9589569702148437	0.018947599411010742	-0.021099599838256836	0.9800640258789063	0.007763430118560791	-0.02944179916381836	1.013239990234375	-0.005761209964752197	-0.005398620128631592	1.0333900146484376	-0.007496920108795166	-0.058370498657226565	0.9004600219726563	-0.012428400039672851	-0.0541713981628418	0.92397998046875	-0.01939459991455078	-0.049698699951171876	0.947801025390625	-0.038416900634765626	-0.03993510055541992	0.9847849731445313	0.001775279998779296	-0.025481599807739258	0.9794130249023437	0.008897259712219238	-0.02834819984436035	0.9613599853515625	-0.01187790012359619	-0.02942639923095703	0.9401110229492188	-0.04296239852905273	-0.016847400665283202	0.9739959716796875	0.010287099838256836	-0.009191069602966308	0.9769149780273437	0.016765499114990236	-0.010934200286865235	0.9579650268554688	-0.002012840032577514	-0.007628749847412109	0.9369530029296875	-0.030851299285888673	0.005732900142669678	0.9701630249023437	-0.01249120044708252	0.025617700576782226	0.8976890258789062	-0.010967499732971191	0.02446299934387207	0.9199530029296875	-0.011437700271606446	0.022895500183105467	0.94043798828125	-0.009926440238952637	0.021391399383544923	0.9714110107421875	-0.036294898986816405	0.014840000152587891	1.055449951171875
12	0.4	0.03519340133666992	-0.023587600708007812	0.95881298828125	0.018797899246215822	-0.020765399932861327	0.98006201171875	0.007533329963684082	-0.029321800231933592	1.0133099975585937	-0.005902289867401123	-0.005062990188598633	1.03297998046875	-0.0075230498313903806	-0.0580807991027832	0.9004500122070312	-0.01257639980316162	-0.05387889862060547	0.9239349975585938	-0.019502099990844728	-0.049444599151611326	0.9476890258789062	-0.03853329849243164	-0.03967779922485352	0.9847440185546875	0.002200750112533569	-0.025060300827026368	0.9788070068359375	0.008826080322265626	-0.028031600952148437	0.9610689697265625	-0.01201930046081543	-0.029162099838256836	0.9400900268554687	-0.04349660110473633	-0.01651099967956543	0.9740570068359375	0.00989766025543213	-0.008814029693603516	0.9763090209960937	0.016272199630737304	-0.01049120044708252	0.9580499877929688	-0.002226229906082153	-0.007525819778442383	0.9368829956054687	-0.03132099914550781	0.005966390132904053	0.970322998046875	-0.01308430004119873	0.02536490058898926	0.8976220092773437	-0.0114443998336792	0.024367399215698242	0.9199149780273438	-0.0118528995513916	0.022947299957275392	0.94043701171875	-0.010298500061035156	0.02162459945678711	0.9714400024414063	-0.03699879837036133	0.015005800247192383	1.0554300537109376
13	0.43333333333333335	0.035020401000976566	-0.023274499893188475	0.9589089965820312	0.01870199966430664	-0.020423599243164062	0.9801859741210938	0.007361330032348633	-0.02919029998779297	1.0134600219726562	-0.006026360034942627	-0.004552460193634033	1.03343994140625	-0.007526979923248291	-0.057880599975585936	0.9006430053710938	-0.012682600021362305	-0.053648700714111326	0.92410302734375	-0.019666099548339845	-0.049190498352050784	0.947802978515625	-0.03880229949951172	-0.0393490982055664	0.9849569702148437	0.0017598700523376461	-0.024771699905395506	0.9789869995117187	0.008557000160217286	-0.028008399963378908	0.9605020141601562	-0.01213290023803711	-0.02893779945373535	0.9401890258789063	-0.04371220016479492	-0.01616830062866211	0.9742680053710937	0.01002750015258789	-0.008575889587402344	0.976166015625	0.016264799118041993	-0.010338800430297852	0.9578140258789063	-0.002627609968185425	-0.007329239845275879	0.9370969848632813	-0.03160199928283691	0.006308899879455566	0.9703690185546875	-0.013603400230407715	0.02529490089416504	0.8976380004882812	-0.01182919979095459	0.02439739990234375	0.9199030151367188	-0.012155099868774414	0.02307309913635254	0.940531982421875	-0.010267200469970704	0.021894100189208985	0.9714030151367188	-0.037620899200439456	0.015343199729919434	1.0556700439453126
14	0.4666666666666667	0.03472570037841797	-0.023131399154663085	0.9588170166015625	0.01862470054626465	-0.020276599884033204	0.9801380004882813	0.007354899883270264	-0.028971000671386717	1.013489990234375	-0.0062283601760864254	-0.004427760124206543	1.0334599609375	-0.007484799861907959	-0.057904098510742186	0.9008989868164062	-0.012599499702453613	-0.05359460067749024	0.9243189697265625	-0.019687599182128906	-0.04907270050048828	0.9479940185546875	-0.0389115982055664	-0.03914879989624023	0.9849669799804688	0.001925799965858459	-0.024893999099731445	0.978843017578125	0.00859340000152588	-0.02756609916687012	0.9617000122070313	-0.012157999992370605	-0.02890719985961914	0.9404390258789063	-0.043729000091552735	-0.015983400344848634	0.9741740112304688	0.010357799530029297	-0.008277620315551758	0.976135009765625	0.01611330032348633	-0.010007699966430665	0.9585360107421875	-0.002565380096435547	-0.007249889850616455	0.9369349975585938	-0.0317180004119873	0.006491809844970703	0.9704429931640625	-0.014019700050354003	0.025408500671386718	0.8977639770507813	-0.01214229965209961	0.024540000915527344	0.91997998046875	-0.012287099838256836	0.02326300048828125	0.9406480102539062	-0.01047309970855713	0.02212310028076172	0.9714970092773437	-0.03709619903564453	0.015358699798583984	1.0558599853515624
15	0.5	0.034852699279785154	-0.02254640007019043	0.9589409790039063	0.0186289005279541	-0.019853200912475586	0.9803400268554687	0.007215660095214843	-0.028669200897216796	1.0135700073242186	-0.006178130149841308	-0.004198490142822265	1.033199951171875	-0.007139349937438965	-0.057762500762939456	0.9011170043945312	-0.012434399604797364	-0.05339670181274414	0.9245709838867188	-0.01962179946899414	-0.04887289810180664	0.9481859741210937	-0.039100700378417966	-0.03888660049438476	0.9852260131835937	0.001855559945106506	-0.0245802001953125	0.978541015625	0.008489870071411132	-0.027303800582885743	0.9618150024414063	-0.012270500183105468	-0.028597499847412108	0.9404970092773437	-0.04387229919433594	-0.015791199684143067	0.9742769775390625	0.010217599868774414	-0.008025469779968262	0.9759619750976563	0.01617770004272461	-0.009758919715881347	0.9581640014648437	-0.002898710012435913	-0.007034029960632324	0.9373629760742187	-0.031811800003051754	0.006673580169677735	0.9704359741210937	-0.014158599853515625	0.025771200180053713	0.8978870239257812	-0.012287400245666503	0.024893199920654297	0.9201010131835937	-0.012467399597167968	0.023587699890136718	0.94072802734375	-0.01063029956817627	0.022485000610351562	0.9717919921875	-0.0371078987121582	0.0155871000289917	1.0556099853515626
16	0.5333333333333333	0.0349468994140625	-0.022445499420166017	0.9590029907226563	0.018661800384521483	-0.01968149948120117	0.9802429809570312	0.007341080188751221	-0.028363000869750975	1.0135399780273437	-0.006476180076599121	-0.0037190101146697997	1.0336099853515626	-0.006991769790649414	-0.05742100143432617	0.9012219848632812	-0.012318099975585937	-0.05307989883422851	0.924573974609375	-0.01959429931640625	-0.048604301452636715	0.9481619873046875	-0.039148998260498044	-0.03867729949951172	0.9849840087890624	0.0018380600214004512	-0.02398200035095215	0.9794660034179687	0.008546030044555664	-0.02715719985961914	0.9612509765625	-0.012239899635314942	-0.02832029914855957	0.9405369873046875	-0.04398249816894531	-0.015447799682617187	0.974260986328125	0.009814370155334472	-0.007607029914855957	0.9762329711914063	0.016055099487304686	-0.00943159008026123	0.9584450073242188	-0.0028076798915863026	-0.006903299808502197	0.9372069702148438	-0.03172430038452148	0.007016240119934082	0.9706320190429687	-0.014291700363159179	0.026074499130249024	0.8978909912109375	-0.012376700401306152	0.025168500900268554	0.920094970703125	-0.01250100040435791	0.023787200927734373	0.9407410278320313	-0.010656100273132324	0.02264189910888672	0.971583984375	-0.037153400421142575	0.01589080047607422	1.0558699951171875
17	0.5666666666666667	0.035104598999023434	-0.022120500564575197	0.95914501953125	0.018609100341796875	-0.01948430061340332	0.9805180053710938	0.007239759922027588	-0.028173999786376955	1.0136099853515625	-0.006416049957275391	-0.003716540098190307	1.0334200439453125	-0.007011730194091797	-0.05725230026245117	0.9012659912109375	-0.012365699768066406	-0.05290219879150391	0.9246069946289063	-0.019696399688720702	-0.048324100494384764	0.9483079833984375	-0.03938940048217773	-0.0384385986328125	0.9851939697265625	0.0017071800231933589	-0.024079999923706054	0.978864013671875	0.008582850456237794	-0.027009799957275392	0.9611829833984376	-0.012188199996948243	-0.028233800888061523	0.94056298828125	-0.043856998443603516	-0.015190600395202637	0.9745670166015625	0.009722060203552246	-0.007721940040588379	0.9766939697265625	0.016083299636840822	-0.009390020370483398	0.9580850219726562	-0.002956850051879883	-0.006804160118103027	0.9372369995117188	-0.03165690040588379	0.0071077198982238765	0.9705	-0.014320699691772461	0.026284900665283203	0.8979219970703125	-0.012416399955749512	0.025362699508666993	0.920083984375	-0.012477499961853027	0.023992300033569336	0.940698974609375	-0.010575599670410156	0.022794500350952148	0.97160302734375	-0.037138198852539064	0.016061700820922852	1.0558599853515624
18	0.6	0.03523569869995117	-0.02206789970397949	0.9592109985351562	0.01872520065307617	-0.019471900939941406	0.9804920043945312	0.007490449905395507	-0.0280531005859375	1.0137899780273438	-0.00642071008682251	-0.003741820096969604	1.0337900390625	-0.0067254300117492675	-0.05707949829101563	0.9013369750976562	-0.012206500053405761	-0.052760501861572266	0.9246190185546875	-0.019540399551391602	-0.04823149871826172	0.9482839965820312	-0.03927980041503906	-0.038405498504638674	0.9851589965820312	0.001044139981269836	-0.024005800247192382	0.9796389770507813	0.008747559547424316	-0.026934099197387696	0.9613729858398438	-0.012201800346374511	-0.027993200302124023	0.9405419921875	-0.04388539886474609	-0.015216699600219727	0.9744290161132813	0.009717020034790039	-0.0075198798179626465	0.9772000122070312	0.016108699798583984	-0.009288599967956543	0.9581090087890625	-0.0026985499858856203	-0.006685060024261474	0.9372080078125	-0.03156380081176758	0.007196080207824707	0.970530029296875	-0.014278499603271485	0.026369800567626955	0.8978699951171875	-0.012302000045776368	0.025473499298095705	0.9201790161132812	-0.01238889980316162	0.02414809989929199	0.9408610229492187	-0.010468799591064453	0.022825599670410156	0.9715960083007813	-0.03719049835205078	0.016045299530029297	1.0560799560546874
